<mxfile host="app.diagrams.net" modified="2020-08-05T01:16:25.853Z" agent="5.0 (Windows NT 10.0; Win64; x64) AppleWebKit/537.36 (KHTML, like Gecko) Chrome/84.0.4147.105 Safari/537.36" etag="SfW_So-Hu90c3owYige2" version="13.5.8" type="github">
  <diagram id="Sg8eH-UAJ3QVDJKttWUy" name="Page-1">
    <mxGraphModel dx="1034" dy="548" grid="1" gridSize="10" guides="1" tooltips="1" connect="1" arrows="1" fold="1" page="1" pageScale="1" pageWidth="827" pageHeight="1169" math="0" shadow="0">
      <root>
        <mxCell id="0" />
        <mxCell id="1" parent="0" />
        <mxCell id="rdflz2K7-HJ1GpBFVxrQ-13" value="Usuario" style="swimlane;fontStyle=0;childLayout=stackLayout;horizontal=1;startSize=26;fillColor=none;horizontalStack=0;resizeParent=1;resizeParentMax=0;resizeLast=0;collapsible=1;marginBottom=0;" vertex="1" parent="1">
          <mxGeometry x="140" y="50" width="140" height="78" as="geometry" />
        </mxCell>
        <mxCell id="rdflz2K7-HJ1GpBFVxrQ-14" value="id " style="text;strokeColor=none;fillColor=none;align=left;verticalAlign=top;spacingLeft=4;spacingRight=4;overflow=hidden;rotatable=0;points=[[0,0.5],[1,0.5]];portConstraint=eastwest;" vertex="1" parent="rdflz2K7-HJ1GpBFVxrQ-13">
          <mxGeometry y="26" width="140" height="26" as="geometry" />
        </mxCell>
        <mxCell id="rdflz2K7-HJ1GpBFVxrQ-15" value="nombre" style="text;strokeColor=none;fillColor=none;align=left;verticalAlign=top;spacingLeft=4;spacingRight=4;overflow=hidden;rotatable=0;points=[[0,0.5],[1,0.5]];portConstraint=eastwest;" vertex="1" parent="rdflz2K7-HJ1GpBFVxrQ-13">
          <mxGeometry y="52" width="140" height="26" as="geometry" />
        </mxCell>
        <mxCell id="rdflz2K7-HJ1GpBFVxrQ-22" value="Articulo" style="swimlane;fontStyle=0;childLayout=stackLayout;horizontal=1;startSize=26;horizontalStack=0;resizeParent=1;resizeParentMax=0;resizeLast=0;collapsible=1;marginBottom=0;align=center;fontSize=14;" vertex="1" parent="1">
          <mxGeometry x="650" y="144" width="160" height="542" as="geometry">
            <mxRectangle x="650" y="144" width="80" height="26" as="alternateBounds" />
          </mxGeometry>
        </mxCell>
        <mxCell id="rdflz2K7-HJ1GpBFVxrQ-23" value="id" style="text;strokeColor=none;fillColor=none;spacingLeft=4;spacingRight=4;overflow=hidden;rotatable=0;points=[[0,0.5],[1,0.5]];portConstraint=eastwest;fontSize=12;" vertex="1" parent="rdflz2K7-HJ1GpBFVxrQ-22">
          <mxGeometry y="26" width="160" height="30" as="geometry" />
        </mxCell>
        <mxCell id="rdflz2K7-HJ1GpBFVxrQ-27" value="nombre" style="text;strokeColor=none;fillColor=none;spacingLeft=4;spacingRight=4;overflow=hidden;rotatable=0;points=[[0,0.5],[1,0.5]];portConstraint=eastwest;fontSize=12;" vertex="1" parent="rdflz2K7-HJ1GpBFVxrQ-22">
          <mxGeometry y="56" width="160" height="54" as="geometry" />
        </mxCell>
        <mxCell id="rdflz2K7-HJ1GpBFVxrQ-31" value="categoria" style="text;strokeColor=none;fillColor=none;spacingLeft=4;spacingRight=4;overflow=hidden;rotatable=0;points=[[0,0.5],[1,0.5]];portConstraint=eastwest;fontSize=12;" vertex="1" parent="rdflz2K7-HJ1GpBFVxrQ-22">
          <mxGeometry y="110" width="160" height="54" as="geometry" />
        </mxCell>
        <mxCell id="rdflz2K7-HJ1GpBFVxrQ-30" value="descripción" style="text;strokeColor=none;fillColor=none;spacingLeft=4;spacingRight=4;overflow=hidden;rotatable=0;points=[[0,0.5],[1,0.5]];portConstraint=eastwest;fontSize=12;" vertex="1" parent="rdflz2K7-HJ1GpBFVxrQ-22">
          <mxGeometry y="164" width="160" height="54" as="geometry" />
        </mxCell>
        <mxCell id="rdflz2K7-HJ1GpBFVxrQ-29" value="precio" style="text;strokeColor=none;fillColor=none;spacingLeft=4;spacingRight=4;overflow=hidden;rotatable=0;points=[[0,0.5],[1,0.5]];portConstraint=eastwest;fontSize=12;" vertex="1" parent="rdflz2K7-HJ1GpBFVxrQ-22">
          <mxGeometry y="218" width="160" height="54" as="geometry" />
        </mxCell>
        <mxCell id="rdflz2K7-HJ1GpBFVxrQ-28" value="imagenes" style="text;strokeColor=none;fillColor=none;spacingLeft=4;spacingRight=4;overflow=hidden;rotatable=0;points=[[0,0.5],[1,0.5]];portConstraint=eastwest;fontSize=12;" vertex="1" parent="rdflz2K7-HJ1GpBFVxrQ-22">
          <mxGeometry y="272" width="160" height="54" as="geometry" />
        </mxCell>
        <mxCell id="rdflz2K7-HJ1GpBFVxrQ-32" value="puntuacion y comentarios" style="text;strokeColor=none;fillColor=none;spacingLeft=4;spacingRight=4;overflow=hidden;rotatable=0;points=[[0,0.5],[1,0.5]];portConstraint=eastwest;fontSize=12;" vertex="1" parent="rdflz2K7-HJ1GpBFVxrQ-22">
          <mxGeometry y="326" width="160" height="54" as="geometry" />
        </mxCell>
        <mxCell id="rdflz2K7-HJ1GpBFVxrQ-33" value="Cant. de comprados" style="text;strokeColor=none;fillColor=none;spacingLeft=4;spacingRight=4;overflow=hidden;rotatable=0;points=[[0,0.5],[1,0.5]];portConstraint=eastwest;fontSize=12;" vertex="1" parent="rdflz2K7-HJ1GpBFVxrQ-22">
          <mxGeometry y="380" width="160" height="54" as="geometry" />
        </mxCell>
        <mxCell id="rdflz2K7-HJ1GpBFVxrQ-34" value="puntuacion y comentarios" style="text;strokeColor=none;fillColor=none;spacingLeft=4;spacingRight=4;overflow=hidden;rotatable=0;points=[[0,0.5],[1,0.5]];portConstraint=eastwest;fontSize=12;" vertex="1" parent="rdflz2K7-HJ1GpBFVxrQ-22">
          <mxGeometry y="434" width="160" height="54" as="geometry" />
        </mxCell>
        <mxCell id="rdflz2K7-HJ1GpBFVxrQ-24" value="Pruductos relacionados" style="text;strokeColor=none;fillColor=none;spacingLeft=4;spacingRight=4;overflow=hidden;rotatable=0;points=[[0,0.5],[1,0.5]];portConstraint=eastwest;fontSize=12;" vertex="1" parent="rdflz2K7-HJ1GpBFVxrQ-22">
          <mxGeometry y="488" width="160" height="54" as="geometry" />
        </mxCell>
        <mxCell id="rdflz2K7-HJ1GpBFVxrQ-95" style="edgeStyle=orthogonalEdgeStyle;rounded=0;orthogonalLoop=1;jettySize=auto;html=1;entryX=0.554;entryY=-0.05;entryDx=0;entryDy=0;entryPerimeter=0;" edge="1" parent="1" source="rdflz2K7-HJ1GpBFVxrQ-5" target="rdflz2K7-HJ1GpBFVxrQ-84">
          <mxGeometry relative="1" as="geometry" />
        </mxCell>
        <mxCell id="rdflz2K7-HJ1GpBFVxrQ-5" value="Vendedor" style="swimlane;fontStyle=0;childLayout=stackLayout;horizontal=1;startSize=52;fillColor=none;horizontalStack=0;resizeParent=1;resizeParentMax=0;resizeLast=0;collapsible=1;marginBottom=0;" vertex="1" parent="1">
          <mxGeometry x="110" y="230" width="140" height="52" as="geometry" />
        </mxCell>
        <mxCell id="rdflz2K7-HJ1GpBFVxrQ-109" style="edgeStyle=orthogonalEdgeStyle;rounded=0;orthogonalLoop=1;jettySize=auto;html=1;entryX=0.886;entryY=-0.019;entryDx=0;entryDy=0;entryPerimeter=0;" edge="1" parent="1" source="rdflz2K7-HJ1GpBFVxrQ-17" target="rdflz2K7-HJ1GpBFVxrQ-84">
          <mxGeometry relative="1" as="geometry">
            <Array as="points">
              <mxPoint x="420" y="300" />
              <mxPoint x="240" y="300" />
              <mxPoint x="240" y="339" />
            </Array>
          </mxGeometry>
        </mxCell>
        <mxCell id="rdflz2K7-HJ1GpBFVxrQ-17" value="Cliente" style="swimlane;fontStyle=0;childLayout=stackLayout;horizontal=1;startSize=52;fillColor=none;horizontalStack=0;resizeParent=1;resizeParentMax=0;resizeLast=0;collapsible=1;marginBottom=0;" vertex="1" parent="1">
          <mxGeometry x="350" y="230" width="140" height="52" as="geometry" />
        </mxCell>
        <mxCell id="rdflz2K7-HJ1GpBFVxrQ-48" value="" style="endArrow=none;html=1;edgeStyle=orthogonalEdgeStyle;exitX=1.026;exitY=-0.038;exitDx=0;exitDy=0;exitPerimeter=0;entryX=0.5;entryY=0;entryDx=0;entryDy=0;" edge="1" parent="1" source="rdflz2K7-HJ1GpBFVxrQ-14" target="rdflz2K7-HJ1GpBFVxrQ-17">
          <mxGeometry relative="1" as="geometry">
            <mxPoint x="330" y="270" as="sourcePoint" />
            <mxPoint x="490" y="270" as="targetPoint" />
          </mxGeometry>
        </mxCell>
        <mxCell id="rdflz2K7-HJ1GpBFVxrQ-49" value="parent" style="edgeLabel;resizable=0;html=1;align=left;verticalAlign=bottom;" connectable="0" vertex="1" parent="rdflz2K7-HJ1GpBFVxrQ-48">
          <mxGeometry x="-1" relative="1" as="geometry" />
        </mxCell>
        <mxCell id="rdflz2K7-HJ1GpBFVxrQ-50" value="child" style="edgeLabel;resizable=0;html=1;align=right;verticalAlign=bottom;" connectable="0" vertex="1" parent="rdflz2K7-HJ1GpBFVxrQ-48">
          <mxGeometry x="1" relative="1" as="geometry">
            <mxPoint y="-49.59" as="offset" />
          </mxGeometry>
        </mxCell>
        <mxCell id="rdflz2K7-HJ1GpBFVxrQ-51" value="" style="endArrow=none;html=1;edgeStyle=orthogonalEdgeStyle;exitX=-0.026;exitY=0.126;exitDx=0;exitDy=0;exitPerimeter=0;entryX=0.571;entryY=-0.042;entryDx=0;entryDy=0;entryPerimeter=0;" edge="1" parent="1" source="rdflz2K7-HJ1GpBFVxrQ-13" target="rdflz2K7-HJ1GpBFVxrQ-5">
          <mxGeometry relative="1" as="geometry">
            <mxPoint x="180.0000000000001" y="128.01199999999994" as="sourcePoint" />
            <mxPoint x="316.36" y="283" as="targetPoint" />
            <Array as="points">
              <mxPoint x="90" y="60" />
              <mxPoint x="90" y="179" />
              <mxPoint x="190" y="179" />
            </Array>
          </mxGeometry>
        </mxCell>
        <mxCell id="rdflz2K7-HJ1GpBFVxrQ-52" value="parent" style="edgeLabel;resizable=0;html=1;align=left;verticalAlign=bottom;" connectable="0" vertex="1" parent="rdflz2K7-HJ1GpBFVxrQ-51">
          <mxGeometry x="-1" relative="1" as="geometry" />
        </mxCell>
        <mxCell id="rdflz2K7-HJ1GpBFVxrQ-53" value="child" style="edgeLabel;resizable=0;html=1;align=right;verticalAlign=bottom;" connectable="0" vertex="1" parent="rdflz2K7-HJ1GpBFVxrQ-51">
          <mxGeometry x="1" relative="1" as="geometry" />
        </mxCell>
        <mxCell id="rdflz2K7-HJ1GpBFVxrQ-56" value="tiene" style="endArrow=block;endFill=1;html=1;edgeStyle=orthogonalEdgeStyle;align=left;verticalAlign=top;" edge="1" parent="1" target="rdflz2K7-HJ1GpBFVxrQ-9">
          <mxGeometry x="-0.1579" relative="1" as="geometry">
            <mxPoint x="410" y="290" as="sourcePoint" />
            <mxPoint x="490" y="270" as="targetPoint" />
            <Array as="points">
              <mxPoint x="410" y="330" />
              <mxPoint x="290" y="330" />
              <mxPoint x="290" y="415" />
            </Array>
            <mxPoint as="offset" />
          </mxGeometry>
        </mxCell>
        <mxCell id="rdflz2K7-HJ1GpBFVxrQ-57" value="1" style="edgeLabel;resizable=0;html=1;align=left;verticalAlign=bottom;" connectable="0" vertex="1" parent="rdflz2K7-HJ1GpBFVxrQ-56">
          <mxGeometry x="-1" relative="1" as="geometry" />
        </mxCell>
        <mxCell id="rdflz2K7-HJ1GpBFVxrQ-58" value="tiene" style="endArrow=block;endFill=1;html=1;edgeStyle=orthogonalEdgeStyle;align=left;verticalAlign=top;exitX=0.75;exitY=1;exitDx=0;exitDy=0;" edge="1" parent="1" source="rdflz2K7-HJ1GpBFVxrQ-17" target="rdflz2K7-HJ1GpBFVxrQ-38">
          <mxGeometry x="-0.3271" relative="1" as="geometry">
            <mxPoint x="330" y="270" as="sourcePoint" />
            <mxPoint x="470" y="420" as="targetPoint" />
            <Array as="points">
              <mxPoint x="470" y="282" />
              <mxPoint x="470" y="682" />
            </Array>
            <mxPoint as="offset" />
          </mxGeometry>
        </mxCell>
        <mxCell id="rdflz2K7-HJ1GpBFVxrQ-59" value="1" style="edgeLabel;resizable=0;html=1;align=left;verticalAlign=bottom;" connectable="0" vertex="1" parent="rdflz2K7-HJ1GpBFVxrQ-58">
          <mxGeometry x="-1" relative="1" as="geometry" />
        </mxCell>
        <mxCell id="rdflz2K7-HJ1GpBFVxrQ-60" value="accede" style="endArrow=block;endFill=1;html=1;edgeStyle=orthogonalEdgeStyle;align=left;verticalAlign=top;exitX=1;exitY=0.5;exitDx=0;exitDy=0;entryX=0;entryY=0;entryDx=0;entryDy=0;" edge="1" parent="1" source="rdflz2K7-HJ1GpBFVxrQ-17" target="rdflz2K7-HJ1GpBFVxrQ-22">
          <mxGeometry x="-0.5588" y="6" relative="1" as="geometry">
            <mxPoint x="750" y="140" as="sourcePoint" />
            <mxPoint x="580" y="150" as="targetPoint" />
            <Array as="points">
              <mxPoint x="550" y="256" />
              <mxPoint x="550" y="150" />
              <mxPoint x="650" y="150" />
            </Array>
            <mxPoint x="6" y="-6" as="offset" />
          </mxGeometry>
        </mxCell>
        <mxCell id="rdflz2K7-HJ1GpBFVxrQ-61" value="1" style="edgeLabel;resizable=0;html=1;align=left;verticalAlign=bottom;" connectable="0" vertex="1" parent="rdflz2K7-HJ1GpBFVxrQ-60">
          <mxGeometry x="-1" relative="1" as="geometry" />
        </mxCell>
        <mxCell id="rdflz2K7-HJ1GpBFVxrQ-79" value="" style="endArrow=open;endFill=1;endSize=12;html=1;" edge="1" parent="1">
          <mxGeometry width="160" relative="1" as="geometry">
            <mxPoint x="250" y="260" as="sourcePoint" />
            <mxPoint x="350" y="260" as="targetPoint" />
          </mxGeometry>
        </mxCell>
        <mxCell id="rdflz2K7-HJ1GpBFVxrQ-83" style="edgeStyle=orthogonalEdgeStyle;rounded=0;orthogonalLoop=1;jettySize=auto;html=1;" edge="1" parent="1" source="rdflz2K7-HJ1GpBFVxrQ-80">
          <mxGeometry relative="1" as="geometry">
            <mxPoint x="300" y="260" as="targetPoint" />
          </mxGeometry>
        </mxCell>
        <mxCell id="rdflz2K7-HJ1GpBFVxrQ-80" value="Consultar y puntuar" style="text;html=1;resizable=0;autosize=1;align=center;verticalAlign=middle;points=[];fillColor=none;strokeColor=none;rounded=0;" vertex="1" parent="1">
          <mxGeometry x="240" y="200" width="120" height="20" as="geometry" />
        </mxCell>
        <mxCell id="rdflz2K7-HJ1GpBFVxrQ-38" value="Carrito de compras" style="swimlane;fontStyle=0;childLayout=stackLayout;horizontal=1;startSize=26;horizontalStack=0;resizeParent=1;resizeParentMax=0;resizeLast=0;collapsible=1;marginBottom=0;align=center;fontSize=14;" vertex="1" parent="1">
          <mxGeometry x="110" y="530" width="350" height="334" as="geometry">
            <mxRectangle x="350" y="430" width="150" height="26" as="alternateBounds" />
          </mxGeometry>
        </mxCell>
        <mxCell id="rdflz2K7-HJ1GpBFVxrQ-45" value=" El costo unitario de un artículo." style="text;strokeColor=none;fillColor=none;spacingLeft=4;spacingRight=4;overflow=hidden;rotatable=0;points=[[0,0.5],[1,0.5]];portConstraint=eastwest;fontSize=12;" vertex="1" parent="rdflz2K7-HJ1GpBFVxrQ-38">
          <mxGeometry y="26" width="350" height="30" as="geometry" />
        </mxCell>
        <mxCell id="rdflz2K7-HJ1GpBFVxrQ-39" value="La cantidad a comprar de cada artículo.&#xa;" style="text;strokeColor=none;fillColor=none;spacingLeft=4;spacingRight=4;overflow=hidden;rotatable=0;points=[[0,0.5],[1,0.5]];portConstraint=eastwest;fontSize=12;" vertex="1" parent="rdflz2K7-HJ1GpBFVxrQ-38">
          <mxGeometry y="56" width="350" height="30" as="geometry" />
        </mxCell>
        <mxCell id="rdflz2K7-HJ1GpBFVxrQ-44" value="El costo total del costo unitario por la cantidad respectiva.&#xa;" style="text;strokeColor=none;fillColor=none;spacingLeft=4;spacingRight=4;overflow=hidden;rotatable=0;points=[[0,0.5],[1,0.5]];portConstraint=eastwest;fontSize=12;" vertex="1" parent="rdflz2K7-HJ1GpBFVxrQ-38">
          <mxGeometry y="86" width="350" height="30" as="geometry" />
        </mxCell>
        <mxCell id="rdflz2K7-HJ1GpBFVxrQ-103" value="El costo total del costo unitario por la cantidad respectiva.&#xa;" style="text;strokeColor=none;fillColor=none;spacingLeft=4;spacingRight=4;overflow=hidden;rotatable=0;points=[[0,0.5],[1,0.5]];portConstraint=eastwest;fontSize=12;" vertex="1" parent="rdflz2K7-HJ1GpBFVxrQ-38">
          <mxGeometry y="116" width="350" height="30" as="geometry" />
        </mxCell>
        <mxCell id="rdflz2K7-HJ1GpBFVxrQ-43" value=" El subtotal que será la sumatoria de los costos total por artículo.&#xa;" style="text;strokeColor=none;fillColor=none;spacingLeft=4;spacingRight=4;overflow=hidden;rotatable=0;points=[[0,0.5],[1,0.5]];portConstraint=eastwest;fontSize=12;" vertex="1" parent="rdflz2K7-HJ1GpBFVxrQ-38">
          <mxGeometry y="146" width="350" height="24" as="geometry" />
        </mxCell>
        <mxCell id="rdflz2K7-HJ1GpBFVxrQ-47" value="El costo total.&#xa;" style="text;strokeColor=none;fillColor=none;spacingLeft=4;spacingRight=4;overflow=hidden;rotatable=0;points=[[0,0.5],[1,0.5]];portConstraint=eastwest;fontSize=12;" vertex="1" parent="rdflz2K7-HJ1GpBFVxrQ-38">
          <mxGeometry y="170" width="350" height="30" as="geometry" />
        </mxCell>
        <mxCell id="rdflz2K7-HJ1GpBFVxrQ-46" value="Deberá seleccionar forma de pago.&#xa;" style="text;strokeColor=none;fillColor=none;spacingLeft=4;spacingRight=4;overflow=hidden;rotatable=0;points=[[0,0.5],[1,0.5]];portConstraint=eastwest;fontSize=12;" vertex="1" parent="rdflz2K7-HJ1GpBFVxrQ-38">
          <mxGeometry y="200" width="350" height="30" as="geometry" />
        </mxCell>
        <mxCell id="rdflz2K7-HJ1GpBFVxrQ-41" value=" Costo de envío." style="text;strokeColor=none;fillColor=none;spacingLeft=4;spacingRight=4;overflow=hidden;rotatable=0;points=[[0,0.5],[1,0.5]];portConstraint=eastwest;fontSize=12;" vertex="1" parent="rdflz2K7-HJ1GpBFVxrQ-38">
          <mxGeometry y="230" width="350" height="104" as="geometry" />
        </mxCell>
        <mxCell id="rdflz2K7-HJ1GpBFVxrQ-89" value="requiere" style="endArrow=block;endFill=1;html=1;edgeStyle=orthogonalEdgeStyle;align=left;verticalAlign=top;exitX=1;exitY=0.5;exitDx=0;exitDy=0;" edge="1" parent="1" source="rdflz2K7-HJ1GpBFVxrQ-84" target="rdflz2K7-HJ1GpBFVxrQ-11">
          <mxGeometry x="-0.7847" y="-16" relative="1" as="geometry">
            <mxPoint x="170" y="366" as="sourcePoint" />
            <mxPoint x="560" y="870" as="targetPoint" />
            <Array as="points">
              <mxPoint x="190" y="366" />
              <mxPoint x="190" y="447" />
            </Array>
            <mxPoint as="offset" />
          </mxGeometry>
        </mxCell>
        <mxCell id="rdflz2K7-HJ1GpBFVxrQ-90" value="1" style="edgeLabel;resizable=0;html=1;align=left;verticalAlign=bottom;" connectable="0" vertex="1" parent="rdflz2K7-HJ1GpBFVxrQ-89">
          <mxGeometry x="-1" relative="1" as="geometry" />
        </mxCell>
        <mxCell id="rdflz2K7-HJ1GpBFVxrQ-99" style="edgeStyle=orthogonalEdgeStyle;rounded=0;orthogonalLoop=1;jettySize=auto;html=1;entryX=0.059;entryY=-0.01;entryDx=0;entryDy=0;entryPerimeter=0;" edge="1" parent="1" source="rdflz2K7-HJ1GpBFVxrQ-84" target="rdflz2K7-HJ1GpBFVxrQ-38">
          <mxGeometry relative="1" as="geometry" />
        </mxCell>
        <mxCell id="rdflz2K7-HJ1GpBFVxrQ-84" value="Envio" style="swimlane;fontStyle=0;childLayout=stackLayout;horizontal=1;startSize=50;fillColor=none;horizontalStack=0;resizeParent=1;resizeParentMax=0;resizeLast=0;collapsible=1;marginBottom=0;" vertex="1" parent="1">
          <mxGeometry x="10" y="340" width="140" height="52" as="geometry" />
        </mxCell>
        <mxCell id="rdflz2K7-HJ1GpBFVxrQ-9" value="Datos" style="swimlane;fontStyle=0;childLayout=stackLayout;horizontal=1;startSize=26;fillColor=none;horizontalStack=0;resizeParent=1;resizeParentMax=0;resizeLast=0;collapsible=1;marginBottom=0;" vertex="1" parent="1">
          <mxGeometry x="290" y="330" width="140" height="130" as="geometry" />
        </mxCell>
        <mxCell id="rdflz2K7-HJ1GpBFVxrQ-10" value="pais" style="text;strokeColor=none;fillColor=none;align=left;verticalAlign=top;spacingLeft=4;spacingRight=4;overflow=hidden;rotatable=0;points=[[0,0.5],[1,0.5]];portConstraint=eastwest;" vertex="1" parent="rdflz2K7-HJ1GpBFVxrQ-9">
          <mxGeometry y="26" width="140" height="26" as="geometry" />
        </mxCell>
        <mxCell id="rdflz2K7-HJ1GpBFVxrQ-37" value="direccion" style="text;strokeColor=none;fillColor=none;align=left;verticalAlign=top;spacingLeft=4;spacingRight=4;overflow=hidden;rotatable=0;points=[[0,0.5],[1,0.5]];portConstraint=eastwest;" vertex="1" parent="rdflz2K7-HJ1GpBFVxrQ-9">
          <mxGeometry y="52" width="140" height="26" as="geometry" />
        </mxCell>
        <mxCell id="rdflz2K7-HJ1GpBFVxrQ-36" value="edad" style="text;strokeColor=none;fillColor=none;align=left;verticalAlign=top;spacingLeft=4;spacingRight=4;overflow=hidden;rotatable=0;points=[[0,0.5],[1,0.5]];portConstraint=eastwest;" vertex="1" parent="rdflz2K7-HJ1GpBFVxrQ-9">
          <mxGeometry y="78" width="140" height="26" as="geometry" />
        </mxCell>
        <mxCell id="rdflz2K7-HJ1GpBFVxrQ-11" value="Forma de pago" style="text;strokeColor=none;fillColor=none;align=left;verticalAlign=top;spacingLeft=4;spacingRight=4;overflow=hidden;rotatable=0;points=[[0,0.5],[1,0.5]];portConstraint=eastwest;" vertex="1" parent="rdflz2K7-HJ1GpBFVxrQ-9">
          <mxGeometry y="104" width="140" height="26" as="geometry" />
        </mxCell>
        <mxCell id="rdflz2K7-HJ1GpBFVxrQ-97" value="" style="endArrow=block;endFill=1;html=1;edgeStyle=orthogonalEdgeStyle;align=left;verticalAlign=top;exitX=0;exitY=0.263;exitDx=0;exitDy=0;exitPerimeter=0;" edge="1" parent="1" source="rdflz2K7-HJ1GpBFVxrQ-33" target="rdflz2K7-HJ1GpBFVxrQ-38">
          <mxGeometry x="-0.5806" y="22" relative="1" as="geometry">
            <mxPoint x="330" y="520" as="sourcePoint" />
            <mxPoint x="490" y="520" as="targetPoint" />
            <mxPoint as="offset" />
          </mxGeometry>
        </mxCell>
        <mxCell id="rdflz2K7-HJ1GpBFVxrQ-98" value="1" style="edgeLabel;resizable=0;html=1;align=left;verticalAlign=bottom;" connectable="0" vertex="1" parent="rdflz2K7-HJ1GpBFVxrQ-97">
          <mxGeometry x="-1" relative="1" as="geometry" />
        </mxCell>
        <mxCell id="rdflz2K7-HJ1GpBFVxrQ-100" value="comprado" style="text;html=1;resizable=0;autosize=1;align=center;verticalAlign=middle;points=[];fillColor=none;strokeColor=none;rounded=0;" vertex="1" parent="1">
          <mxGeometry x="140" y="480" width="70" height="20" as="geometry" />
        </mxCell>
        <mxCell id="rdflz2K7-HJ1GpBFVxrQ-101" value="art. seleccionado" style="text;html=1;resizable=0;autosize=1;align=center;verticalAlign=middle;points=[];fillColor=none;strokeColor=none;rounded=0;" vertex="1" parent="1">
          <mxGeometry x="520" y="510" width="110" height="20" as="geometry" />
        </mxCell>
        <mxCell id="rdflz2K7-HJ1GpBFVxrQ-104" value="N....1" style="text;html=1;resizable=0;autosize=1;align=center;verticalAlign=middle;points=[];fillColor=none;strokeColor=none;rounded=0;" vertex="1" parent="1">
          <mxGeometry x="560" y="560" width="40" height="20" as="geometry" />
        </mxCell>
        <mxCell id="rdflz2K7-HJ1GpBFVxrQ-107" value="1....N" style="text;html=1;resizable=0;autosize=1;align=center;verticalAlign=middle;points=[];fillColor=none;strokeColor=none;rounded=0;" vertex="1" parent="1">
          <mxGeometry x="550" y="200" width="40" height="20" as="geometry" />
        </mxCell>
        <mxCell id="rdflz2K7-HJ1GpBFVxrQ-108" value="1....1" style="text;html=1;resizable=0;autosize=1;align=center;verticalAlign=middle;points=[];fillColor=none;strokeColor=none;rounded=0;" vertex="1" parent="1">
          <mxGeometry x="470" y="440" width="40" height="20" as="geometry" />
        </mxCell>
        <mxCell id="rdflz2K7-HJ1GpBFVxrQ-110" value="1....N" style="text;html=1;resizable=0;autosize=1;align=center;verticalAlign=middle;points=[];fillColor=none;strokeColor=none;rounded=0;" vertex="1" parent="1">
          <mxGeometry x="240" y="300" width="40" height="20" as="geometry" />
        </mxCell>
      </root>
    </mxGraphModel>
  </diagram>
</mxfile>
